<svg xmlns="http://www.w3.org/2000/svg" width="22.283" height="20.992" viewBox="0 0 22.283 20.992">
  <path id="Path_4941" data-name="Path 4941" d="M1.29,10.369c-.378.38-.783.421-1.089.114s-.26-.71.12-1.09l.3-.3L8.671,1.046a3.181,3.181,0,0,1,4.716,0q4.169,4.165,8.335,8.333c.38.38.424.784.12,1.09s-.711.266-1.089-.114c-.131-.132-.26-.266-.395-.4a.492.492,0,0,0-.034.23q0,4.215,0,8.43a1.977,1.977,0,0,1-1.458,1.968,2.195,2.195,0,0,1-.595.074q-7.238,0-14.476,0a1.977,1.977,0,0,1-2.056-2.059q0-4.194,0-8.387V9.919Zm17.655,3.3q0-2.473,0-4.946a.38.38,0,0,0-.122-.3Q15.6,5.2,12.375,1.979a1.805,1.805,0,0,0-2.691,0Q6.458,5.2,3.233,8.424a.381.381,0,0,0-.123.3q0,4.914,0,9.828c0,.505.225.726.738.726,1.169,0,2.337,0,3.506,0,.18,0,.236-.03.235-.227-.01-1.713-.008-3.426,0-5.14A2.148,2.148,0,0,1,9.8,11.706c.8,0,1.592,0,2.388,0a2.153,2.153,0,0,1,2.28,2.272c0,1.7,0,3.4,0,5.1,0,.174.051.206.212.205,1.176-.007,2.352,0,3.528,0,.521,0,.739-.221.739-.747q0-2.43,0-4.86M8.964,16.462c0,.874,0,1.748,0,2.622,0,.163.04.2.2.2q1.87-.011,3.74,0c.157,0,.2-.032.2-.2-.007-1.719,0-3.438,0-5.157a.776.776,0,0,0-.839-.844q-1.225,0-2.45,0a.776.776,0,0,0-.84.843q0,1.268,0,2.536" transform="translate(0.12 0.239)" fill="#122740" stroke="#122740" stroke-width="0.2"/>
</svg>
