<svg xmlns="http://www.w3.org/2000/svg" width="20.967" height="21.054" viewBox="0 0 20.967 21.054">
  <path id="Path_4942" data-name="Path 4942" d="M5.1,19.556a1.033,1.033,0,1,1,0-2.065H6.129V10.262A6.045,6.045,0,0,1,7.42,6.454a5.963,5.963,0,0,1,3.356-2.182V3.549a1.549,1.549,0,1,1,3.1,0v.723a5.955,5.955,0,0,1,3.356,2.182,6.048,6.048,0,0,1,1.291,3.808v7.229h1.033a1.041,1.041,0,0,1,.735,1.769.988.988,0,0,1-.735.3Zm7.229,3.1a2.071,2.071,0,0,1-2.065-2.065h4.131a2.07,2.07,0,0,1-2.065,2.065M8.195,17.491h8.262V10.262a4.143,4.143,0,0,0-4.131-4.131,4.143,4.143,0,0,0-4.131,4.131ZM3.031,10.262A.942.942,0,0,1,2.3,9.926a.957.957,0,0,1-.246-.775,9.906,9.906,0,0,1,1.084-3.6,10.455,10.455,0,0,1,2.246-2.9,1.044,1.044,0,0,1,.762-.258.869.869,0,0,1,.684.387,1.073,1.073,0,0,1,.207.775,1.154,1.154,0,0,1-.387.723,8.124,8.124,0,0,0-1.652,2.22,8.608,8.608,0,0,0-.852,2.737,1.181,1.181,0,0,1-.361.736,1.038,1.038,0,0,1-.749.3m18.589,0a1.042,1.042,0,0,1-.749-.3,1.18,1.18,0,0,1-.361-.735,8.608,8.608,0,0,0-.852-2.737,8.124,8.124,0,0,0-1.652-2.22,1.161,1.161,0,0,1-.387-.723,1.066,1.066,0,0,1,.207-.775.872.872,0,0,1,.685-.387,1.04,1.04,0,0,1,.761.258,10.475,10.475,0,0,1,2.246,2.9,9.9,9.9,0,0,1,1.084,3.6.954.954,0,0,1-.245.775.943.943,0,0,1-.736.336" transform="translate(-1.843 -1.8)" fill="#122740" stroke="#eaeaea" stroke-width="0.4"/>
</svg>
