<svg id="Group_7505" data-name="Group 7505" xmlns="http://www.w3.org/2000/svg" width="20.786" height="20.786" viewBox="0 0 20.786 20.786">
  <path id="Path_4859" data-name="Path 4859" d="M12.7,5.805a.725.725,0,0,1,.448.67v3.867a.725.725,0,0,1-1.45,0V8.225l-.213.213a.725.725,0,1,1-1.025-1.025l1.45-1.45a.725.725,0,0,1,.79-.158" transform="translate(-1.548 -1.399)" fill="#122740"/>
  <path id="Path_4860" data-name="Path 4860" d="M7.291,1.6a26.223,26.223,0,0,1,4.353-.345A26.247,26.247,0,0,1,16,1.6l.131.022A3.465,3.465,0,0,1,18.549,2.7a2.672,2.672,0,0,1,.568,1.648l.476.159a11.365,11.365,0,0,1,1.151.425,2.146,2.146,0,0,1,.881.685A2.152,2.152,0,0,1,22,6.668,11.678,11.678,0,0,1,22.036,7.9v.139c0,.389,0,.732-.029,1.019a1.982,1.982,0,0,1-.931,1.583c-.237.164-.537.332-.877.52l-2.552,1.418a6.723,6.723,0,0,1-2.224,2.6,6.36,6.36,0,0,1-3.055,1.03v1.964h1.383a1.692,1.692,0,0,1,1.659,1.36l.212,1.057h1.822a.725.725,0,1,1,0,1.45H5.842a.725.725,0,1,1,0-1.45H7.665l.212-1.057a1.692,1.692,0,0,1,1.659-1.36h1.383V16.205a6.37,6.37,0,0,1-3.055-1.029,6.741,6.741,0,0,1-2.224-2.6L3.087,11.157q-.451-.239-.877-.52a2.143,2.143,0,0,1-.659-.677,2.139,2.139,0,0,1-.272-.906c-.029-.287-.029-.63-.029-1.019v-.14a11.679,11.679,0,0,1,.039-1.227,2.142,2.142,0,0,1,.372-1.052,2.16,2.16,0,0,1,.88-.686,11.588,11.588,0,0,1,1.152-.424l.476-.159A2.67,2.67,0,0,1,4.737,2.7,3.46,3.46,0,0,1,7.161,1.617ZM9.144,20.586h5l-.155-.772a.242.242,0,0,0-.237-.194H9.535a.242.242,0,0,0-.237.194ZM4.2,5.864a21.7,21.7,0,0,0,.649,4.612L3.819,9.9c-.376-.21-.612-.341-.782-.459A.73.73,0,0,1,2.8,9.223a.724.724,0,0,1-.079-.313Q2.691,8.457,2.7,8V7.932c0-.521,0-.851.029-1.1a.73.73,0,0,1,.108-.368.727.727,0,0,1,.315-.218c.228-.106.541-.212,1.034-.377Zm14.236,4.612L19.467,9.9c.376-.21.612-.341.782-.459a.578.578,0,0,0,.315-.536c.02-.207.021-.477.021-.907V7.932c0-.521,0-.851-.029-1.1a.73.73,0,0,0-.108-.368.727.727,0,0,0-.315-.218c-.228-.106-.541-.212-1.034-.377l-.014,0a21.693,21.693,0,0,1-.648,4.612M11.643,2.7a24.779,24.779,0,0,0-4.111.325c-1.167.2-1.412.271-1.669.588s-.277.607-.226,1.917A16.216,16.216,0,0,0,6.9,11.862a5.327,5.327,0,0,0,1.767,2.11,5.184,5.184,0,0,0,2.972.813,5.187,5.187,0,0,0,2.973-.813,5.311,5.311,0,0,0,1.765-2.111,16.17,16.17,0,0,0,1.267-6.332c.053-1.309.029-1.6-.224-1.916s-.5-.391-1.67-.588A24.776,24.776,0,0,0,11.643,2.7" transform="translate(-1.25 -1.25)" fill="#122740" fill-rule="evenodd"/>
</svg>
