<svg xmlns="http://www.w3.org/2000/svg" width="24.308" height="24.573" viewBox="0 0 24.308 24.573">
  <g id="Group_7504" data-name="Group 7504" transform="translate(0.758 0.8)">
    <path id="Path_2732" data-name="Path 2732" d="M1220.1,549.864a4.864,4.864,0,1,1,9.728,0m-9.728,0h9.728m-9.728,0h-1.487c-1.58,0-2.37,0-2.932.323a2.434,2.434,0,0,0-1.07,1.263c-.226.607-.1,1.386.164,2.943v0l1.135,6.809a5.764,5.764,0,0,0,.578,2.167,2.437,2.437,0,0,0,1.029.872,5.767,5.767,0,0,0,2.231.213h10.432a5.76,5.76,0,0,0,2.231-.213,2.435,2.435,0,0,0,1.03-.872,5.77,5.77,0,0,0,.577-2.167l1.135-6.809v-.005c.259-1.556.389-2.334.164-2.941a2.433,2.433,0,0,0-1.069-1.263c-.562-.323-1.353-.323-2.933-.323h-1.486" transform="translate(-1214.5 -545)" fill="none" stroke="#122740" stroke-linecap="round" stroke-linejoin="round" stroke-width="1.6"/>
  </g>
</svg>
